<?xml version="1.0" encoding="UTF-8"?><svg id="Contenido" xmlns="http://www.w3.org/2000/svg" xmlns:xlink="http://www.w3.org/1999/xlink" viewBox="0 0 218.74 46.5"><defs><style>.cls-1{fill:#fff;}.cls-2{fill:none;stroke:url(#New_Gradient_Swatch);stroke-miterlimit:10;stroke-width:2px;}</style><linearGradient id="New_Gradient_Swatch" x1="0" y1="313.47" x2="216.7" y2="313.47" gradientTransform="translate(0 -291)" gradientUnits="userSpaceOnUse"><stop offset="0" stop-color="#ba51f9"/><stop offset=".25" stop-color="#d53bfc"/><stop offset="1" stop-color="#3fb1e8"/></linearGradient></defs><path class="cls-2" d="m20.68,1L1.54,43.94h10.18l3.8-9.2h19.94l3.8,9.2h10.43L30.5,1h-9.82Zm-1.96,26.19l6.81-16.44,6.81,16.44h-13.62Zm65.03-.12L62.4,1h-8.22v42.94h9.82v-26.07l21.41,26.07h8.16V1h-9.82v26.07Zm108.59,8.89v-9.94h19.94v-7.73h-19.94v-9.32h22.58V1h-32.45v42.94h33.25v-7.97h-23.37Zm-88.58,7.97h9.94V1h-9.94v42.94ZM163.99,1l-15.83,26.69L132.09,1h-8.22v42.94h9.32v-25.21l12.58,20.67h4.48l12.64-21.23.06,25.76h9.32l-.12-42.94h-8.16Z"/><path class="cls-1" d="m86.78,29.62L65.42,3.55h-8.22v42.95h9.82v-26.08l21.41,26.08h8.16V3.55h-9.82v26.08Zm108.58,8.9v-9.94h19.94v-7.73h-19.94v-9.33h22.58V3.55h-32.46v42.95h33.25v-7.98h-23.38ZM23.71,3.55L4.57,46.5h10.19l3.8-9.2h19.94l3.8,9.2h10.43L33.53,3.55h-9.82Zm-1.96,26.2l6.81-16.44,6.81,16.44h-13.62Zm85.03,16.75h9.94V3.55h-9.94v42.95ZM167.02,3.55l-15.83,26.69-16.08-26.69h-8.22v42.95h9.33v-25.22l12.58,20.68h4.48l12.64-21.23.06,25.77h9.33l-.12-42.95h-8.16Z"/></svg>