<?xml version="1.0" encoding="UTF-8"?><svg id="Contenido" xmlns="http://www.w3.org/2000/svg" xmlns:xlink="http://www.w3.org/1999/xlink" viewBox="0 0 233.1 46.63"><defs><style>.cls-1{fill:#fff;}.cls-2{fill:none;stroke:url(#New_Gradient_Swatch);stroke-miterlimit:10;stroke-width:2px;}</style><linearGradient id="New_Gradient_Swatch" x1="-8.5" y1="307.21" x2="221.57" y2="307.21" gradientTransform="translate(9 -284)" gradientUnits="userSpaceOnUse"><stop offset="0" stop-color="#ba51f9"/><stop offset=".25" stop-color="#d53bfc"/><stop offset="1" stop-color="#3fb1e8"/></linearGradient></defs><path class="cls-2" d="m64.49,1.74l-19.14,42.94h10.18l3.8-9.2h19.94l3.8,9.2h10.43L74.31,1.74h-9.82Zm-1.96,26.19l6.81-16.44,6.81,16.44h-13.62ZM25.11,9.47c4.36,0,7.97,1.53,11.1,4.85l6.38-5.89c-4.17-4.85-10.43-7.42-17.97-7.42C10.94,1,1,10.26,1,23.21s9.94,22.21,23.43,22.21c6.13,0,12.64-1.9,17.36-5.46v-17.42h-9.08v12.58c-2.52,1.35-5.03,1.84-7.73,1.84-8.22,0-13.93-5.71-13.93-13.74s5.71-13.74,14.05-13.74ZM138.11,1.74l-15.83,26.69L106.21,1.74h-8.22v42.94h9.32v-25.21l12.58,20.67h4.48l12.64-21.23.06,25.77h9.32l-.12-42.94h-8.16Zm66.99,12.15c0-2.7,2.27-4.91,8.16-4.91,3.8,0,7.91,1.1,11.9,3.37l3.07-7.55c-3.99-2.51-9.51-3.8-14.91-3.8-12.21,0-18.1,6.07-18.1,13.37,0,15.95,24.97,10.43,24.97,18.46,0,2.64-2.39,4.6-8.28,4.6-5.15,0-10.55-1.84-14.17-4.48l-3.37,7.48c3.8,2.94,10.67,4.97,17.48,4.97,12.27,0,18.22-6.13,18.22-13.31,0-15.77-24.97-10.31-24.97-18.22Zm-38.65,12.88h19.94v-7.73h-19.94v-9.32h22.58V1.74h-32.45v42.94h33.25v-7.97h-23.37v-9.94Z"/><path class="cls-1" d="m28.13,10.69c4.36,0,7.97,1.53,11.1,4.85l6.38-5.89c-4.17-4.85-10.43-7.42-17.97-7.42C13.96,2.22,4.03,11.48,4.03,24.43s9.94,22.21,23.43,22.21c6.13,0,12.64-1.9,17.36-5.46v-17.42h-9.08v12.58c-2.52,1.35-5.03,1.84-7.73,1.84-8.22,0-13.93-5.71-13.93-13.74s5.71-13.74,14.05-13.74Zm39.39-7.73l-19.14,42.94h10.18l3.8-9.2h19.94l3.8,9.2h10.43L77.34,2.96h-9.82Zm-1.96,26.19l6.81-16.44,6.81,16.44h-13.62ZM141.14,2.96l-15.83,26.69L109.24,2.96h-8.22v42.94h9.32v-25.21l12.58,20.67h4.48l12.64-21.23.06,25.77h9.32l-.12-42.94h-8.16Zm66.99,12.15c0-2.7,2.27-4.91,8.16-4.91,3.8,0,7.91,1.1,11.9,3.37l3.07-7.55c-3.99-2.51-9.51-3.8-14.91-3.8-12.21,0-18.1,6.07-18.1,13.37,0,15.95,24.97,10.43,24.97,18.46,0,2.64-2.39,4.6-8.28,4.6-5.15,0-10.55-1.84-14.17-4.48l-3.37,7.48c3.8,2.94,10.67,4.97,17.48,4.97,12.27,0,18.22-6.13,18.22-13.31,0-15.77-24.97-10.31-24.97-18.22Zm-38.65,12.88h19.94v-7.73h-19.94v-9.32h22.58V2.96h-32.45v42.94h33.25v-7.97h-23.37v-9.94Z"/></svg>