<?xml version="1.0" encoding="UTF-8"?><svg id="Contenido" xmlns="http://www.w3.org/2000/svg" xmlns:xlink="http://www.w3.org/1999/xlink" viewBox="0 0 136.5 124"><defs><style>.cls-1{fill:#fff;}.cls-2{fill:url(#New_Gradient_Swatch);}</style><linearGradient id="New_Gradient_Swatch" x1="749.72" y1="930.22" x2="875.82" y2="930.22" gradientTransform="translate(-1120.08 -277.45) rotate(-32.58)" gradientUnits="userSpaceOnUse"><stop offset="0" stop-color="#ba51f9"/><stop offset=".25" stop-color="#d53bfc"/><stop offset="1" stop-color="#3fb1e8"/></linearGradient></defs><path class="cls-1" d="m122.58,53.64c-.76-2.29-2.3-5.24-4.62-8.86l-4.67-7.31c-3.59-5.62-6.86-7.87-9.8-6.75-2.94,1.12-6.04,4.71-9.3,10.76-2.89,5.36-4.5,10.91-4.82,16.65l-5.61-8.7,14.67-27.24-5.28-8.24-15.24,28.32c1.69-3.71,2.08-6.06,1.12-7.02-1.18-1.19-3.59-1.83-7.21-1.92,4.56-1.57,7.99-3.09,10.27-4.54,2.28-1.46,4.16-3.57,5.63-6.31,2.16-4.02,1.59-6.8-1.64-8.33-3.19-1.51-10.81-1.29-22.67.59-9.26,1.47-16.34,3.29-21.36,5.47-5,2.16-8.78,5.42-11.4,9.81l-2.36,3.95,23.94-3.43,2.23-3.9c1.03-1.81,2.02-3.03,2.96-3.67.94-.65,2.27-1.1,3.98-1.36,1.51-.23,2.48-.14,2.91.28.42.42.17,1.46-.77,3.12l-1.49,2.66c-.88,1.56-1.84,2.76-2.87,3.58-1.04.82-2.32,1.44-3.84,1.86-1.52.41-5.22,1.03-11.04,1.84l-4.05,6.99c4.75-.59,7.91-.86,9.45-.81,1.54.05,2.5.46,2.87,1.22.38.76.03,2.1-1.04,4.01l-1.95,3.47c-1.78,3.17-3.2,5.17-4.26,6-1.06.83-2.56,1.36-4.52,1.58-1.78.2-2.76.04-2.93-.5-.18-.53.36-1.89,1.61-4.07l4.62-8.08-24.1,3.09-2.28,3.82c-2.77,4.64-4.06,7.85-3.85,9.6.21,1.77,2.08,3.08,5.64,3.95,3.61.88,9.35.91,17.29.07,7.11-.75,13.36-1.98,18.69-3.68,5.37-1.72,9.67-3.84,12.86-6.37,2.5-1.98,4.7-4.47,6.6-7.44l-7.18,13.33,16.16,26.64,11.68-21.66c-.96-1.49-1.52-2.54-1.68-3.15-.16-.61-.17-1.43-.03-2.48.14-1.04.48-2.07,1.03-3.09.86-1.59,1.7-2.38,2.51-2.37.82,0,1.84.97,3.07,2.88l6.51,10.12c2.24,3.62,3.49,5.68,3.76,6.2.27.52.35,1.31.24,2.37-.1,1.07-.45,2.14-1.03,3.22-1.26,2.34-2.45,3.02-3.55,2.03-1.1-.98-2.71-3.12-4.83-6.41l-2.05-3.18-11.71,21.7-.66-1.03c-1.89-2.95-3.89-5.25-6-6.9-2.11-1.64-5.41-2.92-9.87-3.83-4.44-.9-9.01-1.14-13.7-.72-3.7.33-6.58.94-8.65,1.81-2.07.87-3.32,2.01-3.77,3.42l-4.94-7.74c-1.16-1.82-1.87-3.03-2.13-3.65-.26-.61-.1-1.15.47-1.61.58-.46,1.5-.76,2.78-.88,1.53-.15,2.86-.07,4.01.25,1.15.32,1.97.77,2.45,1.35.48.59,1.45,2.02,2.91,4.3l25.85-2.4c-2-3.14-4.69-5.64-8.04-7.49-3.34-1.85-7.7-3.1-13.06-3.74-5.31-.64-11.49-.58-18.51.16-5.63.6-10.28,1.55-13.96,2.86-3.65,1.3-6.13,2.92-7.44,4.88-1.31,1.95-1.51,3.89-.63,5.83.89,1.94,3.13,5.73,6.75,11.39l4.2,6.57c3.35,5.24,5.79,8.76,7.34,10.55,1.54,1.79,3.97,3.45,7.3,4.96,3.34,1.52,7.41,2.59,12.23,3.23,4.86.64,10.69.76,17.54.35,5.57-.33,10.23-1.01,13.98-2.06,3.78-1.05,6.45-2.38,8.01-3.98,1.56-1.61,2.09-3.29,1.57-5.04-.41-1.39-1.38-3.35-2.89-5.86,2.48,3.39,4.75,5.3,6.79,5.68,2.43.45,5.16-.89,8.21-4.03,3.05-3.14,6.08-7.52,9.12-13.13,2.7-5,4.75-9.62,6.14-13.86,1.39-4.24,2.15-8.05,2.28-11.44.13-3.38-.18-6.22-.94-8.51Zm-55.34,53.8c-.85.59-1.83.92-2.92.99-1.8.12-3.3-.13-4.5-.74-1.19-.61-2.47-1.98-3.84-4.12l-5.61-8.79c-1.14-1.78-1.5-3.01-1.08-3.68.42-.68,1.49-1.09,3.24-1.23,1.79-.15,3.29.07,4.5.65,1.21.58,2.37,1.74,3.48,3.47l5.86,9.17c1.44,2.26,1.74,3.69.88,4.28Z"/><path class="cls-2" d="m135.97,61.65l-1.93-3.03L100.64,6.36l-2.15-3.37-3.95.63-18.2,2.89c-2.26-1.07-11.55-4.93-19.74-.7,0,0,.08-2.73,3.27-5.35,1.76-1.45-5.14.15-13.35,10.78l-10.17,1.61-2.82.45-1.46,2.45L2.47,65.23l-1.94,3.24,2.04,3.18,5.75,8.99c.08,3.39.94,12.23,7.57,17.44,0,0-2.51,1.06-6.22-.74-1.98-.96,1.98,4.22,14.01,7.32l10.45,16.33,1.93,3.02,3.57-.21,61.45-3.62,3.4-.2,1.62-2.99,5.54-10.25c2.66-1.74,10.01-7.29,10.86-15.9,0,0,2.25,1.55,2.71,5.65.23,2.05,2.23-3.2-.7-13.6l9.75-18.06,1.71-3.16ZM74.42,6.81l-6.44,1.02c2.06-.55,4.21-.9,6.44-1.02Zm47.31,68.35c-4.21-9.72-12.25-22.23-27.19-36.52,0,0,20,23.49,21.58,46.91l-15.41,28.53-61.45,3.62-7.36-11.5c10.3,1.29,24.41.91,43.01-3.65,0,0-28.63,3.99-49.15-5.96l-18.06-28.22,29.58-49.48,4.54-.72c-5.22,8.79-10.42,21.47-13.86,39.46,0,0,7.9-26.41,24.65-41.17l42.88-6.81,33.4,52.26-7.15,13.25Z"/></svg>